<?xml version="1.0" encoding="UTF-8" standalone="no"?>
<!-- Created with Inkscape (http://www.inkscape.org/) -->

<svg
   xmlns:dc="http://purl.org/dc/elements/1.1/"
   xmlns:cc="http://creativecommons.org/ns#"
   xmlns:rdf="http://www.w3.org/1999/02/22-rdf-syntax-ns#"
   xmlns:svg="http://www.w3.org/2000/svg"
   xmlns="http://www.w3.org/2000/svg"
   xmlns:sodipodi="http://sodipodi.sourceforge.net/DTD/sodipodi-0.dtd"
   xmlns:inkscape="http://www.inkscape.org/namespaces/inkscape"
   width="1920"
   height="410"
   viewBox="0 0 507.99998 108.47917"
   version="1.1"
   id="svg5"
   inkscape:version="0.92.4 (5da689c313, 2019-01-14)"
   sodipodi:docname="LayNii_logo.svg">
  <metadata
     id="metadata56">
    <rdf:RDF>
      <cc:Work
         rdf:about="">
        <dc:format>image/svg+xml</dc:format>
        <dc:type
           rdf:resource="http://purl.org/dc/dcmitype/StillImage" />
      </cc:Work>
    </rdf:RDF>
  </metadata>
  <sodipodi:namedview
     id="namedview7"
     pagecolor="#ffffff"
     bordercolor="#000000"
     borderopacity="0.25"
     inkscape:showpageshadow="2"
     inkscape:pageopacity="0.0"
     inkscape:pagecheckerboard="0"
     inkscape:deskcolor="#d1d1d1"
     inkscape:document-units="mm"
     showgrid="false"
     inkscape:zoom="2"
     inkscape:cx="593.19911"
     inkscape:cy="155.92153"
     inkscape:window-width="2560"
     inkscape:window-height="1387"
     inkscape:window-x="0"
     inkscape:window-y="31"
     inkscape:window-maximized="0"
     inkscape:current-layer="layer1"
     inkscape:snap-global="true"
     inkscape:snap-intersection-paths="true" />
  <defs
     id="defs2" />
  <g
     inkscape:label="Layer 1"
     inkscape:groupmode="layer"
     id="layer1">
    <g
       aria-label="LayNii"
       id="text2262"
       style="font-size:100.583px;font-family:Galvji;-inkscape-font-specification:Galvji;fill:#2c5aa0;stroke:none;stroke-width:0.79375;stroke-dasharray:none"
       transform="matrix(0.99921984,0,0,0.99921984,0.39659068,0.3076755)">
      <path
         d="M 19.714242,6.0965064 V 65.239311 H 43.351248 V 81.936089 H -2.5577545e-5 V 6.0965064 Z"
         style="font-weight:bold;font-family:Futura;-inkscape-font-specification:'Futura Bold';stroke:none;stroke-width:0.79375;stroke-dasharray:none"
         id="path2794" />
      <path
         d="m 68.69812,55.985675 q 0,2.514575 0.905247,4.727401 0.905247,2.112243 2.413992,3.721571 1.609328,1.609328 3.721571,2.514575 2.212826,0.905247 4.727401,0.905247 2.413992,0 4.526235,-0.905247 2.212826,-0.905247 3.721571,-2.514575 1.609328,-1.609328 2.514575,-3.721571 1.00583,-2.112243 1.00583,-4.526235 0,-2.413992 -1.00583,-4.526235 -0.905247,-2.212826 -2.514575,-3.822155 -1.508745,-1.609328 -3.721571,-2.514575 -2.112243,-0.905247 -4.526235,-0.905247 -2.514575,0 -4.727401,0.905247 -2.112243,0.905247 -3.721571,2.514575 -1.508745,1.609329 -2.413992,3.721572 -0.905247,2.01166 -0.905247,4.425652 z M 91.631044,30.337009 h 18.306106 v 51.59908 H 91.631044 v -5.733231 q -5.833814,7.342559 -15.791531,7.342559 -5.632648,0 -10.360049,-2.01166 -4.727401,-2.112243 -8.247806,-5.833814 -3.520405,-3.721571 -5.532065,-8.750721 -1.911077,-5.02915 -1.911077,-10.963547 0,-5.532065 1.911077,-10.460633 1.911077,-5.02915 5.330899,-8.750721 3.419822,-3.721571 8.147223,-5.833814 4.727401,-2.212826 10.460632,-2.212826 9.655968,0 15.992697,6.739061 z"
         style="font-weight:bold;font-family:Futura;-inkscape-font-specification:'Futura Bold';stroke:none;stroke-width:0.79375;stroke-dasharray:none"
         id="path2796" />
      <path
         d="m 141.01713,74.895279 -24.94458,-44.55827 h 21.12243 l 13.77987,26.45333 13.37754,-26.45333 h 20.92126 l -41.44019,77.348331 h -20.41835 z"
         id="path2798"
         style="stroke:none;stroke-width:0.79375;stroke-dasharray:none" />
      <path
         d="M 193.21967,81.936089 V 6.0965064 h 19.71427 L 249.34498,52.46527 V 6.0965064 h 19.61369 V 81.936089 H 249.34498 L 212.93394,35.567325 v 46.368764 z"
         style="font-weight:bold;font-family:Futura;-inkscape-font-specification:'Futura Bold';stroke:none;stroke-width:0.79375;stroke-dasharray:none"
         id="path2800" />
      <path
         d="m 301.34632,30.337009 v 51.59908 H 283.1408 V 30.337009 Z M 281.93381,10.522158 q 0,-2.1122426 0.80466,-3.9227366 0.80466,-1.911077 2.21283,-3.319239 1.40816,-1.408162 3.21865,-2.212826 1.91108,-0.80466399 4.02332,-0.80466399 2.11224,0 3.92274,0.80466399 1.91108,0.804664 3.31924,2.212826 1.40816,1.408162 2.21282,3.319239 0.80467,1.810494 0.80467,3.9227366 0,2.112243 -0.80467,4.02332 -0.80466,1.810494 -2.21282,3.218656 -1.40816,1.408162 -3.31924,2.212826 -1.8105,0.804664 -3.92274,0.804664 -2.11224,0 -4.02332,-0.804664 -1.81049,-0.804664 -3.21865,-2.212826 -1.40817,-1.408162 -2.21283,-3.218656 -0.80466,-1.911077 -0.80466,-4.02332 z"
         style="font-weight:bold;font-family:Futura;-inkscape-font-specification:'Futura Bold';stroke:none;stroke-width:0.79375;stroke-dasharray:none"
         id="path2802" />
      <path
         d="m 332.02397,30.337009 v 51.59908 H 313.81844 V 30.337009 Z M 312.61145,10.522158 q 0,-2.1122426 0.80466,-3.9227366 0.80467,-1.911077 2.21283,-3.319239 1.40816,-1.408162 3.21865,-2.212826 1.91108,-0.80466399 4.02332,-0.80466399 2.11225,0 3.92274,0.80466399 1.91108,0.804664 3.31924,2.212826 1.40816,1.408162 2.21283,3.319239 0.80466,1.810494 0.80466,3.9227366 0,2.112243 -0.80466,4.02332 -0.80467,1.810494 -2.21283,3.218656 -1.40816,1.408162 -3.31924,2.212826 -1.81049,0.804664 -3.92274,0.804664 -2.11224,0 -4.02332,-0.804664 -1.81049,-0.804664 -3.21865,-2.212826 -1.40816,-1.408162 -2.21283,-3.218656 -0.80466,-1.911077 -0.80466,-4.02332 z"
         style="font-weight:bold;font-family:Futura;-inkscape-font-specification:'Futura Bold';stroke:none;stroke-width:0.79375;stroke-dasharray:none"
         id="path2804" />
    </g>
    <g
       id="g11363"
       transform="matrix(0.65723803,0,0,0.65723803,24.145626,142.93488)">
      <path
         style="opacity:1;fill:#5183cf;fill-opacity:1;stroke:none;stroke-width:0.264583;stroke-dasharray:none;stroke-opacity:1"
         d="m 151.03914,-170.8879 32.26615,58.56833 5.04638,-9.17523 -26.60811,-49.3931 z"
         id="path9825" />
      <path
         style="opacity:1;fill:#2c5aa0;fill-opacity:1;stroke:none;stroke-width:0.264583;stroke-dasharray:none;stroke-opacity:1"
         d="m 161.74356,-170.8879 h 10.70439 l 20.95004,40.21796 -5.04632,9.17514 z"
         id="path9890" />
      <path
         style="opacity:1;fill:#2c5aa0;fill-opacity:1;stroke:none;stroke-width:0.264583;stroke-dasharray:none;stroke-opacity:1"
         d="m 140.33475,-170.8879 h 10.70439 l 32.26615,58.56833 -5.04638,9.17524 z"
         id="path9892" />
      <path
         style="opacity:1;fill:#1c3a66;fill-opacity:1;stroke:none;stroke-width:0.264583;stroke-dasharray:none;stroke-opacity:1"
         d="M 224.33868,-170.8879 161.8455,-53.292414 H 151.49791 L 213.73635,-170.8879 Z"
         id="path10113" />
      <path
         style="opacity:1;fill:#1c3a66;fill-opacity:1;stroke:none;stroke-width:0.264583;stroke-dasharray:none;stroke-opacity:1"
         d="m 234.94101,-170.8879 -62.74793,117.595486 h 10.34759 L 245.54371,-170.8879 Z"
         id="path10115" />
      <path
         style="opacity:1;fill:#2c5aa0;fill-opacity:1;stroke:none;stroke-width:0.264583;stroke-dasharray:none;stroke-opacity:1"
         d="m 224.33868,-170.8879 h 10.60233 L 172.19308,-53.292414 H 161.8455 Z"
         id="path10117" />
    </g>
    <g
       aria-label="A software suite for layer (f)MRI"
       id="text11566"
       style="font-weight:bold;font-size:24.4346px;font-family:Futura;-inkscape-font-specification:'Futura Bold';fill:#80b3ff;stroke-width:0.127264">
      <path
         d="m 365.91297,14.277777 -2.15025,-6.1330852 -2.15024,6.1330852 z m 1.2706,3.640755 h -6.84169 l -1.09956,3.200933 h -5.10683 l 7.01273,-18.4236892 h 5.229 l 7.01273,18.4236892 h -5.10683 z"
         id="path1353" />
      <path
         d="m 391.69138,11.809882 q -1.22173,-0.6353 -2.39459,-0.6353 -0.61086,0 -1.00182,0.244346 -0.36652,0.244346 -0.36652,0.659735 0,0.219911 0.0489,0.366519 0.0733,0.122173 0.26878,0.244346 0.21991,0.122173 0.61087,0.219911 0.41539,0.09774 1.07512,0.244346 1.83259,0.366519 2.73667,1.319468 0.90409,0.928515 0.90409,2.394591 0,1.099557 -0.43983,1.979203 -0.43982,0.879646 -1.22173,1.490511 -0.7819,0.58643 -1.88146,0.90408 -1.09956,0.342084 -2.41903,0.342084 -2.5412,0 -5.00909,-1.441641 l 1.61268,-3.127629 q 1.85703,1.270599 3.51859,1.270599 0.61086,0 1.00181,-0.26878 0.39096,-0.268781 0.39096,-0.684169 0,-0.244346 -0.0733,-0.390954 -0.0489,-0.171042 -0.24434,-0.293215 -0.19548,-0.146608 -0.58643,-0.244346 -0.36652,-0.122173 -0.97739,-0.244346 -2.0525,-0.415388 -2.88328,-1.22173 -0.80634,-0.830777 -0.80634,-2.272418 0,-1.050688 0.39095,-1.881464 0.39096,-0.8552113 1.12399,-1.4416417 0.73304,-0.5864304 1.7593,-0.9040803 1.05068,-0.3176498 2.32128,-0.3176498 2.07694,0 4.03171,0.8063419 z"
         id="path1355" />
      <path
         d="m 399.99912,14.790903 q 0,0.6353 0.21991,1.172861 0.24434,0.513127 0.61086,0.90408 0.39096,0.390954 0.90408,0.610865 0.53756,0.219912 1.124,0.219912 0.58643,0 1.09955,-0.219912 0.53756,-0.219911 0.90408,-0.610865 0.39096,-0.390953 0.61087,-0.90408 0.24434,-0.537561 0.24434,-1.148426 0,-0.586431 -0.24434,-1.099557 -0.21991,-0.537561 -0.61087,-0.928515 -0.36652,-0.390954 -0.90408,-0.610865 -0.51312,-0.219911 -1.09955,-0.219911 -0.58644,0 -1.124,0.219911 -0.51312,0.219911 -0.90408,0.610865 -0.36652,0.390954 -0.61086,0.90408 -0.21991,0.513127 -0.21991,1.099557 z m -4.66701,-0.04887 q 0,-1.392772 0.56199,-2.590068 0.562,-1.22173 1.56382,-2.101375 1.00182,-0.9040805 2.37015,-1.4172071 1.39278,-0.5131267 3.0299,-0.5131267 1.61268,0 2.98102,0.5131267 1.39277,0.488692 2.39459,1.3927721 1.02625,0.879646 1.58825,2.12581 0.56199,1.22173 0.56199,2.712241 0,1.490511 -0.58643,2.736675 -0.56199,1.22173 -1.56381,2.125811 -1.00182,0.879645 -2.41903,1.368337 -1.39277,0.488692 -3.02989,0.488692 -1.61268,0 -2.98102,-0.488692 -1.36834,-0.488692 -2.37016,-1.392772 -0.97738,-0.90408 -1.53938,-2.150245 -0.56199,-1.270599 -0.56199,-2.809979 z"
         id="path1357" />
      <path
         d="m 417.71418,12.274139 v 8.845326 h -4.42267 v -8.845326 h -1.58825 V 8.5845146 h 1.58825 V 6.7030504 q 0,-1.5638145 0.29322,-2.4923293 0.24434,-0.7819072 0.78191,-1.4416414 0.53756,-0.6841689 1.24616,-1.1728609 0.73304,-0.488692 1.56382,-0.75747261 0.83077,-0.26878061 1.63711,-0.26878061 0.562,0 1.02626,0.122173 0.48869,0.122173 0.97738,0.34208442 v 3.8606669 q -0.43982,-0.2199114 -0.83078,-0.3176498 -0.36651,-0.122173 -0.7819,-0.122173 -0.26878,0 -0.562,0.097738 -0.26878,0.073304 -0.51313,0.3420844 -0.24434,0.2687806 -0.34208,0.7819072 -0.0733,0.4886921 -0.0733,1.3439031 v 1.5638144 h 3.10319 v 3.6896244 z"
         id="path1359" />
      <path
         d="m 428.07438,12.274139 v 8.845326 h -4.42266 v -8.845326 h -1.46607 V 8.5845146 h 1.46607 V 4.8215861 h 4.42266 v 3.7629285 h 2.51677 v 3.6896244 z"
         id="path1361" />
      <path
         d="m 435.67352,8.5845146 3.00546,6.5973424 3.12763,-6.5973424 h 2.78554 l 3.12763,6.7928194 3.15206,-6.7928194 h 4.91136 l -6.54848,12.5349504 h -2.95658 l -3.12763,-6.866123 -2.98102,6.866123 h -3.00546 l -6.4263,-12.5349504 z"
         id="path1363" />
      <path
         d="m 460.79225,14.815338 q 0,0.610865 0.21991,1.148426 0.21991,0.513127 0.58643,0.90408 0.39095,0.390954 0.90408,0.610865 0.53756,0.219912 1.14842,0.219912 0.58643,0 1.09956,-0.219912 0.53756,-0.219911 0.90408,-0.610865 0.39095,-0.390953 0.61087,-0.90408 0.24434,-0.513127 0.24434,-1.099557 0,-0.58643 -0.24434,-1.099557 -0.21992,-0.537561 -0.61087,-0.928515 -0.36652,-0.390953 -0.90408,-0.610865 -0.51313,-0.219911 -1.09956,-0.219911 -0.61086,0 -1.14842,0.219911 -0.51313,0.219912 -0.90408,0.610865 -0.36652,0.390954 -0.58643,0.90408 -0.21991,0.488692 -0.21991,1.075123 z m 5.57108,-6.2308234 h 4.4471 V 21.119465 h -4.4471 v -1.392772 q -1.4172,1.783725 -3.83623,1.783725 -1.36834,0 -2.51676,-0.488692 -1.14843,-0.513126 -2.00364,-1.417206 -0.85521,-0.904081 -1.3439,-2.125811 -0.46426,-1.22173 -0.46426,-2.663371 0,-1.343903 0.46426,-2.541199 0.46426,-1.22173 1.29503,-2.12581 0.83078,-0.9040801 1.9792,-1.4172067 1.14843,-0.5375613 2.5412,-0.5375613 2.34572,0 3.8851,1.6371183 z"
         id="path1365" />
      <path
         d="m 473.81585,8.5845146 h 4.42266 v 2.0525064 q 0.7086,-1.1239915 1.73486,-1.7104219 1.02625,-0.6108651 2.39459,-0.6108651 0.17104,0 0.36652,0 0.21991,0 0.48869,0.048869 v 4.2271858 q -0.87965,-0.439823 -1.9059,-0.439823 -1.53938,0 -2.32129,0.928515 -0.75747,0.90408 -0.75747,2.663372 v 5.375612 h -4.42266 z"
         id="path1367" />
      <path
         d="m 494.51192,13.031612 q -0.21991,-0.928515 -0.90408,-1.490511 -0.68417,-0.561995 -1.66155,-0.561995 -1.02626,0 -1.68599,0.537561 -0.6353,0.537561 -0.80634,1.514945 z m -5.18014,2.565633 q 0,2.858848 2.68781,2.858848 1.44164,0 2.17468,-1.17286 h 4.27606 q -1.29504,4.300489 -6.47517,4.300489 -1.58825,0 -2.90772,-0.464257 -1.31947,-0.488692 -2.27242,-1.368338 -0.92851,-0.879645 -1.44164,-2.101375 -0.51313,-1.22173 -0.51313,-2.736676 0,-1.563814 0.48869,-2.809979 0.4887,-1.270599 1.39278,-2.1502447 0.90408,-0.8796456 2.17468,-1.3439031 1.29503,-0.488692 2.90771,-0.488692 1.58825,0 2.85885,0.488692 1.2706,0.4642575 2.15025,1.3683377 0.87964,0.9040801 1.3439,2.2235491 0.46426,1.295033 0.46426,2.932152 v 0.464257 z"
         id="path1369" />
      <path
         d="m 363.78716,42.353133 q -1.22173,-0.6353 -2.39459,-0.6353 -0.61087,0 -1.00182,0.244346 -0.36652,0.244346 -0.36652,0.659735 0,0.219911 0.0489,0.366519 0.0733,0.122173 0.26878,0.244346 0.21991,0.122173 0.61086,0.219911 0.41539,0.09774 1.07513,0.244346 1.83259,0.366519 2.73667,1.319468 0.90408,0.928515 0.90408,2.394591 0,1.099557 -0.43982,1.979203 -0.43982,0.879646 -1.22173,1.490511 -0.78191,0.58643 -1.88147,0.90408 -1.09955,0.342084 -2.41902,0.342084 -2.5412,0 -5.00909,-1.441641 l 1.61268,-3.127629 q 1.85703,1.270599 3.51858,1.270599 0.61087,0 1.00182,-0.26878 0.39095,-0.268781 0.39095,-0.684169 0,-0.244346 -0.0733,-0.390954 -0.0489,-0.171042 -0.24435,-0.293215 -0.19547,-0.146608 -0.58643,-0.244346 -0.36652,-0.122173 -0.97738,-0.244346 -2.05251,-0.415388 -2.88328,-1.22173 -0.80635,-0.830777 -0.80635,-2.272418 0,-1.050688 0.39096,-1.881464 0.39095,-0.855211 1.12399,-1.441642 0.73304,-0.58643 1.75929,-0.90408 1.05069,-0.31765 2.32129,-0.31765 2.07694,0 4.03171,0.806342 z"
         id="path1371" />
      <path
         d="m 372.33924,39.127766 v 7.061599 q 0,2.321287 2.24798,2.321287 2.24799,0 2.24799,-2.321287 v -7.061599 h 4.42266 v 7.91681 q 0,2.541199 -1.68599,3.811798 -1.66155,1.270599 -4.98466,1.270599 -3.3231,0 -5.00909,-1.270599 -1.66155,-1.270599 -1.66155,-3.811798 v -7.91681 z"
         id="path1373" />
      <path
         d="m 388.68596,39.127766 v 12.53495 h -4.42267 v -12.53495 z m -4.71588,-4.813617 q 0,-0.513126 0.19548,-0.952949 0.19547,-0.464258 0.53756,-0.806342 0.34208,-0.342084 0.7819,-0.537561 0.46426,-0.195477 0.97739,-0.195477 0.51312,0 0.95295,0.195477 0.46425,0.195477 0.80634,0.537561 0.34208,0.342084 0.53756,0.806342 0.19548,0.439823 0.19548,0.952949 0,0.513127 -0.19548,0.977384 -0.19548,0.439823 -0.53756,0.781908 -0.34209,0.342084 -0.80634,0.537561 -0.43983,0.195477 -0.95295,0.195477 -0.51313,0 -0.97739,-0.195477 -0.43982,-0.195477 -0.7819,-0.537561 -0.34209,-0.342085 -0.53756,-0.781908 -0.19548,-0.464257 -0.19548,-0.977384 z"
         id="path1375" />
      <path
         d="m 396.6516,42.81739 v 8.845326 h -4.42267 V 42.81739 h -1.46607 v -3.689624 h 1.46607 v -3.762929 h 4.42267 v 3.762929 h 2.51676 v 3.689624 z"
         id="path1377" />
      <path
         d="m 410.23717,43.574863 q -0.21991,-0.928515 -0.90408,-1.490511 -0.68416,-0.561995 -1.66155,-0.561995 -1.02625,0 -1.68599,0.537561 -0.6353,0.537561 -0.80634,1.514945 z m -5.18013,2.565633 q 0,2.858848 2.6878,2.858848 1.44165,0 2.17468,-1.17286 h 4.27606 q -1.29503,4.300489 -6.47517,4.300489 -1.58825,0 -2.90772,-0.464257 -1.31947,-0.488692 -2.27242,-1.368338 -0.92851,-0.879645 -1.44164,-2.101375 -0.51312,-1.22173 -0.51312,-2.736676 0,-1.563814 0.48869,-2.809979 0.48869,-1.270599 1.39277,-2.150245 0.90408,-0.879645 2.17468,-1.343903 1.29503,-0.488692 2.90772,-0.488692 1.58825,0 2.85885,0.488692 1.2706,0.464258 2.15024,1.368338 0.87965,0.90408 1.3439,2.223549 0.46426,1.295033 0.46426,2.932152 v 0.464257 z"
         id="path1379" />
      <path
         d="m 429.98027,42.81739 v 8.845326 h -4.42266 V 42.81739 h -1.58825 v -3.689624 h 1.58825 v -1.881465 q 0,-1.563814 0.29322,-2.492329 0.24434,-0.781907 0.7819,-1.441641 0.53757,-0.684169 1.24617,-1.172861 0.73304,-0.488692 1.56381,-0.757473 0.83078,-0.26878 1.63712,-0.26878 0.562,0 1.02625,0.122173 0.4887,0.122173 0.97739,0.342084 v 3.860667 q -0.43982,-0.219911 -0.83078,-0.31765 -0.36652,-0.122173 -0.7819,-0.122173 -0.26879,0 -0.562,0.09774 -0.26878,0.0733 -0.51313,0.342084 -0.24434,0.268781 -0.34208,0.781907 -0.0733,0.488692 -0.0733,1.343903 v 1.563815 h 3.1032 v 3.689624 z"
         id="path1381" />
      <path
         d="m 439.14319,45.334154 q 0,0.6353 0.21991,1.172861 0.24435,0.513127 0.61087,0.90408 0.39095,0.390954 0.90408,0.610865 0.53756,0.219912 1.12399,0.219912 0.58643,0 1.09956,-0.219912 0.53756,-0.219911 0.90408,-0.610865 0.39095,-0.390953 0.61086,-0.90408 0.24435,-0.537561 0.24435,-1.148426 0,-0.586431 -0.24435,-1.099557 -0.21991,-0.537561 -0.61086,-0.928515 -0.36652,-0.390954 -0.90408,-0.610865 -0.51313,-0.219911 -1.09956,-0.219911 -0.58643,0 -1.12399,0.219911 -0.51313,0.219911 -0.90408,0.610865 -0.36652,0.390954 -0.61087,0.90408 -0.21991,0.513127 -0.21991,1.099557 z m -4.66701,-0.04887 q 0,-1.392772 0.562,-2.590068 0.56199,-1.22173 1.56381,-2.101375 1.00182,-0.90408 2.37016,-1.417207 1.39277,-0.513127 3.02989,-0.513127 1.61268,0 2.98102,0.513127 1.39277,0.488692 2.39459,1.392772 1.02625,0.879646 1.58825,2.12581 0.562,1.22173 0.562,2.712241 0,1.490511 -0.58643,2.736675 -0.562,1.22173 -1.56382,2.125811 -1.00182,0.879645 -2.41902,1.368337 -1.39278,0.488692 -3.0299,0.488692 -1.61268,0 -2.98102,-0.488692 -1.36833,-0.488692 -2.37015,-1.392772 -0.97739,-0.90408 -1.53938,-2.150245 -0.562,-1.270599 -0.562,-2.809979 z"
         id="path1383" />
      <path
         d="m 452.06907,39.127766 h 4.42266 v 2.052506 q 0.7086,-1.123991 1.73486,-1.710422 1.02625,-0.610865 2.39459,-0.610865 0.17104,0 0.36652,0 0.21991,0 0.48869,0.04887 v 4.227186 q -0.87965,-0.439823 -1.9059,-0.439823 -1.53938,0 -2.32129,0.928515 -0.75747,0.90408 -0.75747,2.663372 v 5.375612 h -4.42266 z"
         id="path1385" />
      <path
         d="m 359.90206,61.925248 v 20.280719 h -4.42267 V 61.925248 Z"
         id="path1387" />
      <path
         d="m 367.03692,75.90184 q 0,0.610865 0.21991,1.148426 0.21991,0.513127 0.58643,0.90408 0.39095,0.390954 0.90408,0.610865 0.53756,0.219912 1.14843,0.219912 0.58643,0 1.09955,-0.219912 0.53757,-0.219911 0.90408,-0.610865 0.39096,-0.390953 0.61087,-0.90408 0.24435,-0.513126 0.24435,-1.099557 0,-0.58643 -0.24435,-1.099557 -0.21991,-0.537561 -0.61087,-0.928515 -0.36651,-0.390953 -0.90408,-0.610865 -0.51312,-0.219911 -1.09955,-0.219911 -0.61087,0 -1.14843,0.219911 -0.51313,0.219912 -0.90408,0.610865 -0.36652,0.390954 -0.58643,0.90408 -0.21991,0.488693 -0.21991,1.075123 z m 5.57109,-6.230823 h 4.4471 v 12.53495 h -4.4471 v -1.392772 q -1.41721,1.783726 -3.83623,1.783726 -1.36834,0 -2.51677,-0.488692 -1.14842,-0.513127 -2.00364,-1.417207 -0.85521,-0.904081 -1.3439,-2.125811 -0.46426,-1.22173 -0.46426,-2.663371 0,-1.343903 0.46426,-2.541199 0.46426,-1.22173 1.29504,-2.12581 0.83077,-0.90408 1.9792,-1.417207 1.14842,-0.537561 2.5412,-0.537561 2.34572,0 3.8851,1.637118 z"
         id="path1389" />
      <path
         d="m 384.84966,80.495545 -6.05978,-10.824528 h 5.13127 l 3.34754,6.4263 3.2498,-6.4263 h 5.0824 l -10.06706,18.790208 h -4.96022 z"
         id="path1391" />
      <path
         d="m 405.64348,74.118114 q -0.21991,-0.928515 -0.90408,-1.490511 -0.68417,-0.561995 -1.66156,-0.561995 -1.02625,0 -1.68598,0.537561 -0.6353,0.537561 -0.80634,1.514945 z m -5.18014,2.565633 q 0,2.858848 2.68781,2.858848 1.44164,0 2.17468,-1.17286 h 4.27605 q -1.29503,4.300489 -6.47517,4.300489 -1.58825,0 -2.90771,-0.464257 -1.31947,-0.488692 -2.27242,-1.368338 -0.92852,-0.879645 -1.44164,-2.101375 -0.51313,-1.22173 -0.51313,-2.736676 0,-1.563814 0.48869,-2.809979 0.48869,-1.270599 1.39277,-2.150245 0.90408,-0.879645 2.17468,-1.343903 1.29504,-0.488692 2.90772,-0.488692 1.58825,0 2.85885,0.488692 1.2706,0.464258 2.15024,1.368338 0.87965,0.90408 1.34391,2.223549 0.46426,1.295033 0.46426,2.932152 v 0.464257 z"
         id="path1393" />
      <path
         d="m 412.28967,69.671017 h 4.42266 v 2.052506 q 0.70861,-1.123991 1.73486,-1.710422 1.02625,-0.610865 2.39459,-0.610865 0.17104,0 0.36652,0 0.21991,0 0.48869,0.04887 v 4.227186 q -0.87964,-0.439823 -1.9059,-0.439823 -1.53938,0 -2.32128,0.928515 -0.75748,0.904081 -0.75748,2.663372 v 5.375612 h -4.42266 z"
         id="path1395" />
      <path
         d="m 438.48348,62.707155 q -2.80998,4.789182 -2.80998,11.435394 0,1.612683 0.19548,3.274236 0.21991,1.637118 0.58643,3.152064 0.36652,1.514945 0.87964,2.809979 0.51313,1.319468 1.14843,2.296852 l -2.66337,1.514946 q -1.71042,-2.49233 -2.63894,-5.864305 -0.90408,-3.371975 -0.90408,-7.354815 0,-1.759291 0.21991,-3.518582 0.24435,-1.759291 0.68417,-3.420844 0.43982,-1.661553 1.09956,-3.127629 0.65973,-1.490511 1.53938,-2.712241 z"
         id="path1397" />
      <path
         d="m 446.08264,73.360641 v 8.845326 h -4.42266 v -8.845326 h -1.58825 v -3.689624 h 1.58825 v -1.881465 q 0,-1.563814 0.29321,-2.492329 0.24435,-0.781907 0.78191,-1.441641 0.53756,-0.684169 1.24616,-1.172861 0.73304,-0.488692 1.56382,-0.757473 0.83077,-0.26878 1.63712,-0.26878 0.56199,0 1.02625,0.122173 0.48869,0.122173 0.97738,0.342084 v 3.860667 q -0.43982,-0.219911 -0.83077,-0.31765 -0.36652,-0.122173 -0.78191,-0.122173 -0.26878,0 -0.562,0.09774 -0.26878,0.0733 -0.51312,0.342084 -0.24435,0.268781 -0.34209,0.781907 -0.0733,0.488692 -0.0733,1.343903 v 1.563815 h 3.10319 v 3.689624 z"
         id="path1399" />
      <path
         d="m 450.62745,85.67568 q 2.80998,-4.838051 2.80998,-11.435393 0,-1.563814 -0.21992,-3.200933 -0.19547,-1.661552 -0.58643,-3.200932 -0.36652,-1.53938 -0.87964,-2.858849 -0.51313,-1.319468 -1.12399,-2.272418 l 2.66337,-1.514945 q 1.71042,2.49233 2.6145,5.864304 0.92852,3.347541 0.92852,7.37925 0,1.759291 -0.24435,3.518582 -0.21991,1.759292 -0.68417,3.39641 -0.43982,1.637118 -1.09956,3.127629 -0.65973,1.49051 -1.51494,2.712241 z"
         id="path1401" />
      <path
         d="m 459.76598,82.205967 3.12763,-18.423689 h 4.74032 l 3.68962,9.822709 3.66519,-9.822709 h 4.74031 l 3.12763,18.423689 h -4.76474 l -1.58825,-10.604617 -4.34936,10.604617 h -1.9059 l -4.12945,-10.604617 -1.58825,10.604617 z"
         id="path1403" />
      <path
         d="m 490.67575,72.016738 h 0.90408 q 1.41721,0 2.17468,-0.58643 0.75748,-0.58643 0.75748,-1.685987 0,-1.099558 -0.75748,-1.685988 -0.75747,-0.58643 -2.17468,-0.58643 h -0.90408 z m 10.53132,10.189229 h -5.96205 l -4.56927,-7.086034 v 7.086034 h -4.78918 V 63.782278 h 7.45255 q 1.53938,0 2.68781,0.464257 1.14843,0.439823 1.88146,1.22173 0.75748,0.781908 1.124,1.808161 0.39095,1.026253 0.39095,2.199114 0,2.101376 -1.02625,3.420844 -1.00182,1.295034 -2.98102,1.759291 z"
         id="path1405" />
      <path
         d="M 507.99988,63.782278 V 82.205967 H 503.2107 V 63.782278 Z"
         id="path1407" />
    </g>
    <g
       aria-label="LayNii"
       id="g2896"
       style="font-size:100.583px;font-family:Galvji;-inkscape-font-specification:Galvji;fill:none;stroke:#ffffff;stroke-width:0.79375;stroke-dasharray:none"
       transform="matrix(0.99921984,0,0,0.99921984,0.39659068,0.3076755)">
      <path
         d="M 19.714242,6.0965064 V 65.239311 H 43.351248 V 81.936089 H -2.5577545e-5 V 6.0965064 Z"
         style="font-weight:bold;font-family:Futura;-inkscape-font-specification:'Futura Bold';fill:none;stroke:#ffffff;stroke-width:0.79375;stroke-dasharray:none"
         id="path2884" />
      <path
         d="m 68.69812,55.985675 q 0,2.514575 0.905247,4.727401 0.905247,2.112243 2.413992,3.721571 1.609328,1.609328 3.721571,2.514575 2.212826,0.905247 4.727401,0.905247 2.413992,0 4.526235,-0.905247 2.212826,-0.905247 3.721571,-2.514575 1.609328,-1.609328 2.514575,-3.721571 1.00583,-2.112243 1.00583,-4.526235 0,-2.413992 -1.00583,-4.526235 -0.905247,-2.212826 -2.514575,-3.822155 -1.508745,-1.609328 -3.721571,-2.514575 -2.112243,-0.905247 -4.526235,-0.905247 -2.514575,0 -4.727401,0.905247 -2.112243,0.905247 -3.721571,2.514575 -1.508745,1.609329 -2.413992,3.721572 -0.905247,2.01166 -0.905247,4.425652 z M 91.631044,30.337009 h 18.306106 v 51.59908 H 91.631044 v -5.733231 q -5.833814,7.342559 -15.791531,7.342559 -5.632648,0 -10.360049,-2.01166 -4.727401,-2.112243 -8.247806,-5.833814 -3.520405,-3.721571 -5.532065,-8.750721 -1.911077,-5.02915 -1.911077,-10.963547 0,-5.532065 1.911077,-10.460633 1.911077,-5.02915 5.330899,-8.750721 3.419822,-3.721571 8.147223,-5.833814 4.727401,-2.212826 10.460632,-2.212826 9.655968,0 15.992697,6.739061 z"
         style="font-weight:bold;font-family:Futura;-inkscape-font-specification:'Futura Bold';fill:none;stroke:#ffffff;stroke-width:0.79375;stroke-dasharray:none"
         id="path2886" />
      <path
         d="m 141.01713,74.895279 -24.94458,-44.55827 h 21.12243 l 13.47101,25.8604 13.6864,-25.8604 h 20.92126 l -41.44019,77.348331 h -20.41835 z"
         id="path2888"
         style="fill:none;stroke:#ffffff;stroke-width:0.79374999;stroke-dasharray:none"
         inkscape:connector-curvature="0"
         sodipodi:nodetypes="ccccccccc" />
      <path
         d="M 193.21967,81.936089 V 6.0965064 h 19.71427 L 249.34498,52.46527 V 6.0965064 h 19.61369 V 81.936089 H 249.34498 L 212.93394,35.567325 v 46.368764 z"
         style="font-weight:bold;font-family:Futura;-inkscape-font-specification:'Futura Bold';fill:none;stroke:#ffffff;stroke-width:0.79375;stroke-dasharray:none"
         id="path2890" />
      <path
         d="m 301.34632,30.337009 v 51.59908 H 283.1408 V 30.337009 Z M 281.93381,10.522158 q 0,-2.1122426 0.80466,-3.9227366 0.80466,-1.911077 2.21283,-3.319239 1.40816,-1.408162 3.21865,-2.212826 1.91108,-0.80466399 4.02332,-0.80466399 2.11224,0 3.92274,0.80466399 1.91108,0.804664 3.31924,2.212826 1.40816,1.408162 2.21282,3.319239 0.80467,1.810494 0.80467,3.9227366 0,2.112243 -0.80467,4.02332 -0.80466,1.810494 -2.21282,3.218656 -1.40816,1.408162 -3.31924,2.212826 -1.8105,0.804664 -3.92274,0.804664 -2.11224,0 -4.02332,-0.804664 -1.81049,-0.804664 -3.21865,-2.212826 -1.40817,-1.408162 -2.21283,-3.218656 -0.80466,-1.911077 -0.80466,-4.02332 z"
         style="font-weight:bold;font-family:Futura;-inkscape-font-specification:'Futura Bold';fill:none;stroke:#ffffff;stroke-width:0.79375;stroke-dasharray:none"
         id="path2892" />
      <path
         d="m 332.02397,30.337009 v 51.59908 H 313.81844 V 30.337009 Z M 312.61145,10.522158 q 0,-2.1122426 0.80466,-3.9227366 0.80467,-1.911077 2.21283,-3.319239 1.40816,-1.408162 3.21865,-2.212826 1.91108,-0.80466399 4.02332,-0.80466399 2.11225,0 3.92274,0.80466399 1.91108,0.804664 3.31924,2.212826 1.40816,1.408162 2.21283,3.319239 0.80466,1.810494 0.80466,3.9227366 0,2.112243 -0.80466,4.02332 -0.80467,1.810494 -2.21283,3.218656 -1.40816,1.408162 -3.31924,2.212826 -1.81049,0.804664 -3.92274,0.804664 -2.11224,0 -4.02332,-0.804664 -1.81049,-0.804664 -3.21865,-2.212826 -1.40816,-1.408162 -2.21283,-3.218656 -0.80466,-1.911077 -0.80466,-4.02332 z"
         style="font-weight:bold;font-family:Futura;-inkscape-font-specification:'Futura Bold';fill:none;stroke:#ffffff;stroke-width:0.79375;stroke-dasharray:none"
         id="path2894" />
    </g>
  </g>
</svg>
